<mxfile host="app.diagrams.net" modified="2022-08-20T07:34:39.534Z" agent="5.0 (Windows NT 10.0; Win64; x64) AppleWebKit/537.36 (KHTML, like Gecko) Chrome/103.0.0.0 Safari/537.36" etag="TfJp60FjmT59GHqdHW4i" version="20.2.5" type="github">
  <diagram id="9edvrSUWrmSlcZn-se-Z" name="第 1 页">
    <mxGraphModel dx="539" dy="327" grid="1" gridSize="10" guides="1" tooltips="1" connect="1" arrows="1" fold="1" page="1" pageScale="1" pageWidth="827" pageHeight="1169" math="0" shadow="0">
      <root>
        <mxCell id="0" />
        <mxCell id="1" parent="0" />
        <mxCell id="bQWMT__8ahmgp1ui6LJc-14" value="&lt;span style=&quot;font-size: 21px;&quot;&gt;&lt;font style=&quot;font-size: 21px;&quot;&gt;d[1]=60 m[1]=0&lt;/font&gt;&lt;/span&gt;" style="rounded=0;whiteSpace=wrap;html=1;fontSize=21;fontStyle=1" vertex="1" parent="1">
          <mxGeometry x="240" y="320" width="300" height="60" as="geometry" />
        </mxCell>
        <mxCell id="bQWMT__8ahmgp1ui6LJc-15" value="d[2]=33 m[2]=0" style="whiteSpace=wrap;html=1;rounded=0;" vertex="1" parent="1">
          <mxGeometry x="240" y="380" width="180" height="60" as="geometry" />
        </mxCell>
        <mxCell id="bQWMT__8ahmgp1ui6LJc-17" value="d[3]=27 m[3]=0" style="whiteSpace=wrap;html=1;rounded=0;" vertex="1" parent="1">
          <mxGeometry x="420" y="380" width="120" height="60" as="geometry" />
        </mxCell>
        <mxCell id="bQWMT__8ahmgp1ui6LJc-22" value="d[4]=21 m[4]=0" style="whiteSpace=wrap;html=1;rounded=0;" vertex="1" parent="1">
          <mxGeometry x="240" y="440" width="120" height="60" as="geometry" />
        </mxCell>
        <mxCell id="bQWMT__8ahmgp1ui6LJc-26" value="d[5]=12 m[5]=0" style="whiteSpace=wrap;html=1;rounded=0;" vertex="1" parent="1">
          <mxGeometry x="360" y="440" width="60" height="60" as="geometry" />
        </mxCell>
        <mxCell id="bQWMT__8ahmgp1ui6LJc-30" value="d[7]=14 m[7]=0" style="whiteSpace=wrap;html=1;rounded=0;" vertex="1" parent="1">
          <mxGeometry x="480" y="440" width="60" height="60" as="geometry" />
        </mxCell>
        <mxCell id="bQWMT__8ahmgp1ui6LJc-35" value="d[6]=13 m[6]=0" style="whiteSpace=wrap;html=1;rounded=0;" vertex="1" parent="1">
          <mxGeometry x="420" y="440" width="60" height="60" as="geometry" />
        </mxCell>
        <mxCell id="bQWMT__8ahmgp1ui6LJc-37" value="d[8]=10 m[8]=0" style="whiteSpace=wrap;html=1;rounded=0;" vertex="1" parent="1">
          <mxGeometry x="240" y="500" width="60" height="60" as="geometry" />
        </mxCell>
        <mxCell id="bQWMT__8ahmgp1ui6LJc-39" value="d[9]=11 m[9]=0" style="whiteSpace=wrap;html=1;rounded=0;" vertex="1" parent="1">
          <mxGeometry x="300" y="500" width="60" height="60" as="geometry" />
        </mxCell>
      </root>
    </mxGraphModel>
  </diagram>
</mxfile>
